<svg width="48" height="48" viewBox="0 0 48 48" fill="none" xmlns="http://www.w3.org/2000/svg">
<path d="M39.9049 8.3973L39.8774 8.42309C39.7807 8.51356 39.6601 8.56236 39.5379 8.56619C39.4157 8.57002 39.2932 8.52889 39.1923 8.44529C38.0529 7.50167 35.7514 5.61374 34.831 5.00198L34.8307 5.00184C27.9891 0.459281 20.9729 1.01586 14.0683 4.01151L14.0683 4.0115L14.0657 4.01265C11.3806 5.19569 8.98329 6.9869 7.04657 9.25485C5.10991 11.5227 3.68216 14.2107 2.86545 17.1233L2.86499 17.1249C1.13097 23.3927 1.84083 30.2884 5.11131 35.1226L5.11127 35.1226L5.11497 35.1279C7.16928 38.0815 9.6955 40.6453 12.5838 42.7067L12.5838 42.7068L12.5905 42.7114C13.9508 43.649 17.0812 44.9629 20.7059 45.6229C24.3322 46.2832 28.5557 46.3083 32.0617 44.557C38.8018 41.3023 42.9527 36.5165 44.6851 29.9428L44.6861 29.9391C45.2667 27.6671 45.5716 25.328 45.5937 22.9769L45.5937 22.9727C45.5956 20.9912 45.2674 19.0241 44.6234 17.1592C44.5747 17.0161 44.5757 16.859 44.626 16.7167C44.6764 16.5744 44.7713 16.4602 44.8889 16.3899L44.915 16.3744C44.9152 16.3742 44.9155 16.3741 44.9157 16.3739C44.9893 16.3308 45.0697 16.3058 45.1513 16.2996C45.2332 16.2934 45.3159 16.306 45.3938 16.3373C45.4717 16.3686 45.5439 16.4183 45.6044 16.4843C45.6648 16.5503 45.7119 16.631 45.7407 16.7211L45.7419 16.7248C46.4188 18.783 46.7695 20.9431 46.7799 23.1198C46.7866 25.2042 46.5576 27.2819 46.0978 29.3099C44.8906 34.4975 42.5618 38.6142 39.2419 41.6384C35.9209 44.6637 31.5798 46.6215 26.3075 47.4434C25.9104 47.5052 25.2002 47.5156 24.3033 47.4784C23.4188 47.4418 22.3883 47.3608 21.3708 47.2524C20.353 47.144 19.3545 47.0089 18.5336 46.8652C17.691 46.7176 17.0939 46.5702 16.8366 46.4528L16.836 46.4525C13.8277 45.0855 10.0848 43.1431 7.09003 40.0167L7.08887 40.0155C6.94278 39.864 6.79538 39.7044 6.64927 39.5429C1.06319 33.3253 -0.729674 25.9336 1.32211 17.5149C3.15834 9.99247 7.55718 4.91731 14.4118 2.37296L14.4119 2.37292C22.0477 -0.463454 29.5418 -0.419959 36.7663 4.8883L36.7667 4.88864C37.7054 5.57674 38.6067 6.38563 39.5002 7.18756L39.5149 7.2007C39.5149 7.20078 39.515 7.20085 39.5151 7.20093C39.6325 7.30661 39.7509 7.41285 39.8701 7.51963C39.9298 7.57313 39.9793 7.64063 40.014 7.71846C40.0488 7.79635 40.0675 7.88198 40.0683 7.96943C40.0692 8.05689 40.052 8.14296 40.0187 8.22166C39.9906 8.2881 39.9518 8.34741 39.9049 8.3973Z" stroke="#84A9AC"/>
<path d="M20.9689 31.4709L20.6183 31.0701C19.7325 30.0572 17.6212 27.5594 15.9296 25.5583C15.0526 24.5207 14.2884 23.6167 13.8664 23.1223L13.8664 23.1223C13.6483 22.8667 13.4562 22.5953 13.2783 22.3367C13.241 22.2826 13.2046 22.2294 13.1686 22.1768C13.0287 21.9722 12.8963 21.7786 12.7544 21.5908C12.5666 21.3423 12.4232 21.1906 12.2999 21.1264C12.2514 21.1011 12.2205 21.0977 12.1962 21.0998C12.1699 21.1021 12.1098 21.1146 12.0107 21.1862C11.9284 21.2456 11.8943 21.2954 11.8783 21.3287C11.8623 21.3622 11.8524 21.4042 11.855 21.4651C11.8611 21.6052 11.93 21.7951 12.0639 22.043L12.0691 22.0527L12.0739 22.0626C12.1977 22.318 12.3399 22.5631 12.4993 22.7955C13.7565 24.4546 17.8104 29.6553 19.146 31.1899C19.6515 31.7704 20.0592 32.1713 20.4147 32.4252C20.7642 32.6749 21.0325 32.7608 21.2697 32.7597C21.5117 32.7586 21.7968 32.6668 22.1777 32.4149C22.5614 32.1613 23.0049 31.7706 23.5571 31.2245C28.6474 26.1793 33.7705 21.1712 38.9265 16.2L38.9266 16.1999C40.4529 14.7288 42.0313 13.2991 43.6032 11.8753C44.5724 10.9974 45.5392 10.1217 46.4896 9.24001L46.4897 9.23994C46.927 8.83441 47.2925 8.46664 47.4346 8.07765L47.439 8.06552L47.4392 8.06558C47.4915 7.93297 47.5106 7.78754 47.494 7.64377C47.4788 7.51314 47.4348 7.38953 47.367 7.28255C47.3584 7.27716 47.3431 7.26838 47.3188 7.25744C47.2605 7.23115 47.178 7.20496 47.0785 7.18565C46.8708 7.14534 46.6643 7.14884 46.5403 7.18182L20.9689 31.4709ZM20.9689 31.4709L21.3469 31.0959C21.4989 30.9451 21.6313 30.8161 21.7494 30.701C21.9712 30.4849 22.1427 30.3179 22.2989 30.1475M20.9689 31.4709L22.2989 30.1475M22.2989 30.1475C29.6299 22.1515 37.6621 14.949 45.7608 7.78598C45.8381 7.71764 45.902 7.65823 45.9613 7.60306C46.0468 7.52366 46.1227 7.45304 46.2155 7.37721C46.3583 7.26057 46.4613 7.20305 46.54 7.18191L22.2989 30.1475Z" stroke="#84A9AC"/>
</svg>
