<svg width="165" height="198" viewBox="0 0 165 198" fill="none" xmlns="http://www.w3.org/2000/svg">
<path d="M43.1833 17.8042C43.1833 17.8042 43.1833 17.8042 43.1833 17.7542C42.8978 17.2856 42.4709 16.9198 41.964 16.7095C41.4572 16.4992 40.8967 16.4554 40.3633 16.5842C39.9172 16.6798 39.4953 16.8657 39.1239 17.1306C38.7524 17.3954 38.4391 17.7336 38.2033 18.1242C37.7281 18.9315 37.5678 19.8859 37.7533 20.8042C37.9303 21.4331 38.342 21.97 38.9033 22.3042C39.0216 22.464 39.1594 22.6084 39.3133 22.7342C39.7768 23.0895 40.3493 23.2728 40.933 23.2527C41.5167 23.2327 42.0753 23.0105 42.5133 22.6242C43.0503 22.6203 43.5712 22.4401 43.9958 22.1113C44.4204 21.7824 44.7252 21.3232 44.8633 20.8042C45.0127 20.1845 44.9227 19.5312 44.6112 18.975C44.2998 18.4187 43.7898 18.0006 43.1833 17.8042Z" fill="#48D3E9"/>
<path d="M42.2833 159.314C41.6227 159.322 40.9913 159.588 40.5242 160.055C40.057 160.522 39.7911 161.154 39.7833 161.814C39.7933 161.927 39.7933 162.041 39.7833 162.154C39.4327 162.28 39.1191 162.491 38.871 162.769C38.623 163.046 38.4484 163.382 38.3633 163.744C38.198 164.376 38.2837 165.048 38.6025 165.618C38.9212 166.189 39.4483 166.614 40.0733 166.804C40.8407 166.985 41.6462 166.911 42.3678 166.594C43.0895 166.276 43.6882 165.732 44.0733 165.044C44.6185 164.051 44.8716 162.925 44.8033 161.794C44.7903 161.134 44.5193 160.504 44.0484 160.041C43.5775 159.578 42.944 159.317 42.2833 159.314Z" fill="#48D3E9"/>
<path d="M125.263 158.524C125.079 157.891 124.655 157.354 124.083 157.028C123.51 156.701 122.832 156.61 122.193 156.774C121.782 156.913 121.408 157.147 121.102 157.456C120.797 157.765 120.568 158.141 120.433 158.554L120.343 158.674C120.013 159.261 119.924 159.953 120.093 160.604C120.275 161.241 120.7 161.781 121.276 162.108C121.852 162.435 122.533 162.524 123.173 162.354C123.941 162.113 124.593 161.597 125.003 160.904C125.208 160.547 125.336 160.151 125.381 159.741C125.426 159.332 125.386 158.917 125.263 158.524Z" fill="#48D3E9"/>
<path d="M151.723 115.584C151.573 114.938 151.205 114.365 150.68 113.96C150.155 113.555 149.506 113.345 148.843 113.364C148.555 113.393 148.272 113.464 148.003 113.574C147.355 113.108 146.582 112.847 145.783 112.824C145.122 112.829 144.489 113.094 144.021 113.562C143.554 114.03 143.289 114.663 143.283 115.324C143.298 115.894 143.504 116.443 143.866 116.883C144.228 117.323 144.727 117.63 145.283 117.754C145.318 117.808 145.359 117.858 145.403 117.904C145.757 118.303 146.161 118.656 146.603 118.954C147.146 119.332 147.784 119.548 148.445 119.577C149.106 119.605 149.761 119.445 150.333 119.114C150.905 118.745 151.347 118.206 151.597 117.573C151.846 116.94 151.89 116.244 151.723 115.584Z" fill="#48D3E9"/>
<path d="M123.433 18.0142C122.789 18.0165 122.152 18.158 121.567 18.429C120.982 18.6999 120.462 19.094 120.043 19.5842C119.917 19.7397 119.807 19.9072 119.713 20.0842C119.131 19.8754 118.492 19.8907 117.921 20.1271C117.349 20.3634 116.886 20.804 116.622 21.3629C116.357 21.9219 116.31 22.5592 116.49 23.151C116.67 23.7427 117.063 24.2465 117.593 24.5642C118.347 24.9488 119.176 25.166 120.021 25.201C120.867 25.236 121.711 25.088 122.494 24.7671C123.277 24.4462 123.982 23.9599 124.56 23.3415C125.138 22.7232 125.576 21.9873 125.843 21.1842C125.942 20.8129 125.955 20.4239 125.881 20.0469C125.807 19.6699 125.647 19.3148 125.415 19.0089C125.182 18.703 124.883 18.4544 124.539 18.282C124.196 18.1095 123.818 18.018 123.433 18.0142Z" fill="#48D3E9"/>
<path d="M122.243 70.5342C122.304 69.9862 122.161 69.4349 121.842 68.9851C121.524 68.5353 121.051 68.2183 120.513 68.0942C120.16 67.7389 119.786 67.405 119.393 67.0942C111.943 61.2342 100.923 70.9042 95.0133 77.0942L94.0133 77.7742C93.4598 77.5854 92.8616 77.5714 92.2999 77.7342C91.7381 77.897 91.2401 78.2287 90.8733 78.6842C89.7433 80.2342 88.5733 81.7542 87.3933 83.2542C84.7534 85.8088 82.3657 88.6118 80.2633 91.6242C78.5233 93.5109 76.74 95.3542 74.9133 97.1542C74.4834 96.9118 73.979 96.8369 73.4972 96.944C73.0153 97.0511 72.5901 97.3325 72.3033 97.7342L71.9133 98.2542C71.91 98.2774 71.91 98.301 71.9133 98.3242C71.3071 99.0914 70.7872 99.9231 70.3633 100.804C70.0783 101.224 69.7712 101.627 69.4433 102.014C69.289 101.897 69.1168 101.806 68.9333 101.744C68.6733 101.234 68.3933 100.744 68.1033 100.234C68.0649 99.8769 67.9414 99.534 67.7433 99.2342C65.1051 95.0724 61.9537 91.2591 58.3633 87.8842C57.9998 87.5214 57.537 87.2743 57.0333 87.1742L56.8133 86.9342C56.6166 86.7169 56.3778 86.5419 56.1113 86.4198C55.8449 86.2977 55.5563 86.2312 55.2633 86.2242C55.0019 85.9914 54.6956 85.8144 54.3633 85.7042C52.8952 85.2394 51.3259 85.1973 49.8351 85.5828C48.3442 85.9684 46.992 86.7659 45.9333 87.8842C43.2633 87.5642 40.8133 89.2942 39.9333 92.3842C38.5033 97.4742 42.3133 102.384 46.4033 104.834C46.9833 105.184 47.5933 105.504 48.2133 105.834C48.7733 106.494 49.3433 107.124 49.8933 107.734C50.226 108.102 50.6674 108.354 51.1533 108.454L51.3633 108.804C51.647 109.345 52.132 109.753 52.7137 109.941C53.2954 110.128 53.9273 110.079 54.4733 109.804C55.7264 113.303 58.0014 116.344 61.0033 118.534C64.4933 123.654 71.3733 125.284 77.3433 122.874C87.2833 118.874 90.7633 107.584 98.0033 100.594C98.2525 100.357 98.444 100.067 98.5633 99.7442C103.577 95.1709 108.497 90.5042 113.323 85.7442C119.143 83.2942 124.983 76.4142 122.243 70.5342Z" fill="#84A9AC"/>
<path d="M161.273 112.804C159.563 126.474 152.073 138.634 144.763 150.314C142.197 154.655 139.298 158.791 136.093 162.684C132.742 166.389 129.019 169.739 124.983 172.684C112.363 182.334 98.3633 188.874 83.3033 194.124C83.5733 194.124 83.6533 194.534 83.4333 194.694C83.3085 194.748 83.1741 194.776 83.0383 194.776C82.9025 194.776 82.7681 194.748 82.6433 194.694C65.7033 189.174 49.4833 180.954 35.9933 169.324C22.5033 157.694 11.7933 142.514 6.79331 125.414C5.31331 120.344 3.98331 115.504 3.71331 110.234C2.47331 86.0009 2.33331 61.7442 3.29331 37.4642C3.48331 32.8442 3.14331 27.7242 5.75331 23.9142C8.51331 19.9142 13.2533 17.8242 17.8133 16.1442C34.8133 9.8742 52.7533 6.4542 70.6733 3.6842C73.4044 3.18676 76.1687 2.89262 78.9433 2.8042C82.602 2.8826 86.2436 3.32817 89.8133 4.1342C108.764 7.7918 127.504 12.4652 145.953 18.1342C149.843 19.3342 153.953 20.6942 156.673 23.6842C158.345 25.7054 159.669 27.9897 160.593 30.4442C163.953 38.0742 160.593 47.4442 160.083 55.7242C159.023 74.5042 163.613 94.1642 161.273 112.804Z" stroke="#172C38" stroke-width="5" stroke-linejoin="round"/>
<path d="M141.283 101.094C139.783 116.993 133.933 132.172 124.374 144.965C114.814 157.758 101.916 167.67 87.0933 173.614C85.5669 174.366 83.9645 174.953 82.3133 175.364C69.9733 169.614 57.4033 163.704 47.5133 154.364C43.305 150.285 39.5099 145.8 36.1833 140.974C31.3633 134.064 26.3633 126.804 23.5633 118.854C21.2933 112.394 21.3633 105.404 21.3633 98.5642C21.4833 77.0042 21.9133 56.0242 22.0333 34.4642C40.7193 28.7433 59.9211 24.8681 79.3633 22.8942C100.433 20.7542 120.733 29.4542 140.833 36.1442C142.723 38.4842 142.703 41.2842 142.733 44.2942C142.933 63.5542 143.093 81.9142 141.283 101.094Z" stroke="#172C38" stroke-width="2" stroke-linejoin="round"/>
<path d="M81.7833 4.51421C82.1233 10.6342 82.1633 16.7842 81.9033 22.9142" stroke="#172C38" stroke-width="2" stroke-linejoin="bevel"/>
<path d="M82.1233 175.584C82.0014 181.63 82.1949 187.678 82.7033 193.704" stroke="#172C38" stroke-width="2" stroke-linejoin="bevel"/>
<path d="M119.953 79.2442C121.363 79.5042 122.133 77.6442 122.163 76.2442C122.281 73.285 121.369 70.3765 119.583 68.0142C118.681 66.852 117.514 65.9218 116.18 65.3009C114.846 64.68 113.384 64.3863 111.913 64.4442C108.393 64.6942 105.493 67.1842 102.913 69.5842C91.7552 79.8887 81.182 90.8091 71.2433 102.294C67.91 97.9742 64.4366 93.8009 60.8233 89.7742C58.7233 87.4542 56.3233 85.0542 53.2233 84.6242C51.046 84.4699 48.8678 84.9125 46.9233 85.9042C45.352 86.4862 43.9306 87.4121 42.7633 88.6142C40.7633 90.9542 40.6733 94.5142 41.7633 97.4042C42.8533 100.294 44.9933 102.654 47.0733 104.954C51.0733 109.354 54.9433 112.954 58.8633 117.434C62.7833 121.914 68.5033 125.664 74.2833 124.364C78.6333 123.364 81.8233 119.804 84.7633 116.454C96.0333 103.614 108.053 91.4542 120.063 79.2842C118.813 79.0142 120.993 78.4642 119.953 79.2442Z" stroke="#84A9AC" stroke-width="2" stroke-linejoin="bevel"/>
<path d="M120.953 19.3742C120.466 19.1964 119.929 19.2149 119.455 19.4257C118.981 19.6366 118.608 20.0233 118.413 20.5042C118.068 21.4864 117.995 22.544 118.203 23.5642C118.206 23.9208 118.314 24.2687 118.513 24.5642C118.735 24.7867 119.016 24.9396 119.323 25.0042C120.973 25.5042 123.113 25.3842 123.983 23.8942C124.213 23.4843 124.336 23.0238 124.343 22.5542C124.366 21.8093 124.148 21.0769 123.721 20.4656C123.295 19.8542 122.684 19.3963 121.977 19.1596C121.27 18.9229 120.506 18.9201 119.798 19.1514C119.089 19.3828 118.474 19.8361 118.043 20.4442" stroke="#172C38" stroke-width="2" stroke-linejoin="bevel"/>
<path d="M40.2133 18.1542C39.238 18.5651 38.4576 19.3347 38.0333 20.3042C37.8367 20.7911 37.7946 21.3266 37.9127 21.8382C38.0308 22.3498 38.3033 22.8127 38.6933 23.1642C39.3993 23.6185 40.2374 23.8227 41.0733 23.7442C42.3333 23.7442 43.7433 23.5342 44.4933 22.5242C44.8456 22.021 45.0278 21.4183 45.0133 20.8042C45.0194 19.9149 44.7176 19.051 44.1589 18.3591C43.6003 17.6671 42.8194 17.1899 41.9488 17.0085C41.0782 16.8271 40.1717 16.9527 39.3832 17.3638C38.5947 17.775 37.9728 18.4465 37.6233 19.2642" stroke="#172C38" stroke-width="2" stroke-linejoin="bevel"/>
<path d="M12.9733 112.284C12.4703 112.171 11.9452 112.204 11.4609 112.382C10.9767 112.559 10.5539 112.873 10.2433 113.284C10.0538 113.598 9.94212 113.952 9.91776 114.317C9.8934 114.683 9.95703 115.048 10.1033 115.384C10.2818 115.755 10.5378 116.084 10.854 116.348C11.1702 116.611 11.5394 116.804 11.9365 116.913C12.3336 117.022 12.7494 117.045 13.156 116.979C13.5626 116.914 13.9504 116.762 14.2933 116.534C14.6114 116.27 14.8714 115.942 15.0568 115.572C15.2422 115.202 15.349 114.798 15.3706 114.385C15.3922 113.971 15.3281 113.558 15.1823 113.171C15.0365 112.783 14.8121 112.431 14.5233 112.134C14.2081 111.866 13.8428 111.662 13.4486 111.535C13.0544 111.408 12.639 111.361 12.2263 111.395C11.8136 111.43 11.4118 111.545 11.044 111.736C10.6763 111.926 10.3497 112.187 10.0833 112.504L11.4533 112.974" stroke="#172C38" stroke-width="2" stroke-linejoin="bevel"/>
<path d="M147.523 113.804C147.075 113.594 146.572 113.531 146.086 113.622C145.6 113.714 145.155 113.956 144.813 114.314C144.276 114.892 143.941 115.629 143.86 116.414C143.779 117.199 143.955 117.989 144.363 118.664C144.795 119.325 145.39 119.864 146.091 120.228C146.792 120.592 147.574 120.77 148.363 120.744C148.936 120.746 149.503 120.623 150.023 120.384C150.758 119.954 151.31 119.271 151.579 118.464C151.848 117.656 151.814 116.779 151.483 115.994C151.117 115.224 150.542 114.572 149.825 114.111C149.108 113.65 148.276 113.398 147.423 113.384C145.704 113.392 144.053 114.053 142.803 115.234" stroke="#172C38" stroke-width="2" stroke-linejoin="bevel"/>
<path d="M121.963 157.304C121.538 157.305 121.119 157.402 120.738 157.589C120.356 157.776 120.023 158.048 119.762 158.384C119.502 158.72 119.322 159.11 119.235 159.526C119.149 159.942 119.158 160.373 119.263 160.784C119.416 161.185 119.648 161.552 119.946 161.862C120.243 162.171 120.599 162.419 120.994 162.588C121.388 162.758 121.812 162.847 122.242 162.85C122.671 162.852 123.097 162.769 123.493 162.604C124.276 162.222 124.902 161.581 125.266 160.79C125.631 160 125.711 159.107 125.493 158.264C125.424 157.937 125.29 157.627 125.099 157.353C124.909 157.078 124.665 156.844 124.383 156.664C123.738 156.385 123.023 156.308 122.333 156.444C121.519 156.478 120.72 156.675 119.983 157.024C119.611 157.21 119.299 157.495 119.08 157.848C118.861 158.201 118.744 158.609 118.743 159.024" stroke="#172C38" stroke-width="2" stroke-linejoin="bevel"/>
<path d="M40.7833 160.804C40.4793 160.783 40.1744 160.829 39.8903 160.939C39.6062 161.049 39.3499 161.221 39.1398 161.442C38.9296 161.662 38.7708 161.927 38.6746 162.216C38.5784 162.505 38.5472 162.812 38.5833 163.114C38.7063 163.724 38.9957 164.288 39.4192 164.743C39.8428 165.198 40.3842 165.527 40.9833 165.694C41.4462 165.89 41.9545 165.952 42.4509 165.874C42.9474 165.796 43.4123 165.582 43.7933 165.254C44.1335 164.844 44.3333 164.336 44.3633 163.804C44.4123 162.727 44.0326 161.674 43.3074 160.876C42.5822 160.077 41.5704 159.599 40.4933 159.544C40.1094 159.507 39.723 159.582 39.3806 159.759C39.0382 159.937 38.7543 160.209 38.5633 160.544C38.2733 161.264 39.0333 162.254 39.7333 161.924" stroke="#172C38" stroke-width="2" stroke-linejoin="bevel"/>
<path d="M148.803 68.8842C148.155 68.8973 147.539 69.1668 147.089 69.6335C146.639 70.1002 146.393 70.7261 146.403 71.3742C146.459 72.0205 146.749 72.6242 147.218 73.0718C147.688 73.5193 148.305 73.7798 148.953 73.8042C149.602 73.7909 150.228 73.5628 150.732 73.1556C151.237 72.7484 151.593 72.1852 151.743 71.5542C151.879 70.9125 151.788 70.2435 151.485 69.6616C151.182 69.0798 150.687 68.6212 150.083 68.3642C149.777 68.2603 149.453 68.2189 149.13 68.2425C148.807 68.266 148.493 68.3541 148.205 68.5014C147.916 68.6487 147.661 68.8523 147.453 69.1001C147.245 69.3479 147.088 69.6349 146.993 69.9442" stroke="#172C38" stroke-width="2" stroke-linejoin="bevel"/>
<path d="M9.6333 67.8042C8.5333 67.8042 7.8033 69.0742 7.8333 70.1842C7.85158 70.7817 8.02302 71.3645 8.33119 71.8767C8.63936 72.3889 9.07393 72.8134 9.59324 73.1094C10.1126 73.4055 10.6992 73.5632 11.297 73.5674C11.8947 73.5716 12.4836 73.4223 13.007 73.1336C13.5305 72.8449 13.971 72.4266 14.2864 71.9188C14.6018 71.411 14.7815 70.8307 14.8082 70.2336C14.8349 69.6364 14.7078 69.0423 14.439 68.5084C14.1703 67.9744 13.7689 67.5185 13.2733 67.1842C11.9905 66.4889 10.5076 66.2559 9.0733 66.5242C8.73458 66.4919 8.39626 66.5897 8.12698 66.7977C7.8577 67.0057 7.67763 67.3083 7.6233 67.6442C7.28621 68.6855 7.10097 69.77 7.0733 70.8642" stroke="#172C38" stroke-width="2" stroke-linejoin="bevel"/>
<path d="M22.2133 34.3342L24.8933 36.6442C25.7633 37.4042 26.8933 38.2042 27.9633 37.7542C42.9033 31.3842 59.7633 29.7542 75.8933 27.8342C78.8778 27.4271 81.8823 27.1834 84.8933 27.1042C88.6438 27.1428 92.3854 27.4771 96.0833 28.1042C108.433 30.0042 120.783 32.8142 131.993 38.3342C133.565 39.2554 135.294 39.8759 137.093 40.1642C138.903 40.3042 140.933 39.5142 141.623 37.8342L139.333 38.6942" stroke="#172C38" stroke-width="2" stroke-linejoin="bevel"/>
<path d="M26.7133 38.4742C25.2483 60.5766 25.2483 82.7518 26.7133 104.854C27.1533 111.284 27.7133 117.794 30.0533 123.794C32.0533 128.964 35.2933 133.554 38.6233 137.984C49.0133 151.804 61.1433 165.044 77.0433 171.704" stroke="#172C38" stroke-width="2" stroke-linejoin="bevel"/>
<path d="M137.453 40.5242C138.293 55.5442 138.557 70.5775 138.243 85.6242C138.143 90.4942 137.973 95.3742 137.463 100.224C134.954 122.972 124.759 144.184 108.563 160.354C108.083 160.824 106.993 161.084 106.993 160.354" stroke="#172C38" stroke-width="2" stroke-linejoin="bevel"/>
<path d="M81.1333 10.4342C79.5279 10.1942 77.8878 10.4746 76.4533 11.2342" stroke="#172C38" stroke-width="2" stroke-linejoin="bevel"/>
<path d="M81.3633 15.5642L76.9533 15.2742C76.5518 15.2096 76.1402 15.2689 75.7733 15.4442C75.4333 15.6642 75.2733 16.2042 75.5833 16.4442" stroke="#172C38" stroke-width="2" stroke-linejoin="bevel"/>
<path d="M84.4833 14.6142C85.8133 13.8242 87.8133 15.8842 88.8833 14.7742" stroke="#172C38" stroke-width="2" stroke-linejoin="bevel"/>
<path d="M80.8533 181.364C82.3392 180.817 83.8943 180.481 85.4733 180.364" stroke="#172C38" stroke-width="2" stroke-linejoin="bevel"/>
<path d="M82.2033 185.354L86.6933 182.614" stroke="#172C38" stroke-width="2" stroke-linejoin="bevel"/>
<path d="M54.8233 50.9242L55.5933 50.6742" stroke="#172C38" stroke-width="2" stroke-linejoin="bevel"/>
<path d="M58.9433 63.4942L59.2133 64.4942" stroke="#172C38" stroke-width="2" stroke-linejoin="bevel"/>
<path d="M75.7833 55.3242V54.8042" stroke="#172C38" stroke-width="2" stroke-linejoin="bevel"/>
<path d="M110.513 51.2442C110.699 50.9758 110.977 50.7839 111.293 50.7042C111.458 50.8765 111.586 51.0807 111.668 51.3044C111.751 51.528 111.787 51.7662 111.773 52.0042" stroke="#172C38" stroke-width="2" stroke-linejoin="bevel"/>
<path d="M111.273 100.264V101.024" stroke="#172C38" stroke-width="2" stroke-linejoin="bevel"/>
<path d="M79.3633 99.8042L79.6433 99.5842" stroke="#172C38" stroke-width="2" stroke-linejoin="bevel"/>
<path d="M86.7533 94.3942L97.7533 82.7042" stroke="#172C38" stroke-width="2" stroke-linejoin="bevel"/>
<path d="M94.4133 93.6242L98.4133 89.2142" stroke="#172C38" stroke-width="2" stroke-linejoin="bevel"/>
<path d="M51.5533 101.144C52.6099 103.232 54.0756 105.085 55.8633 106.594C56.9812 107.365 57.9644 108.314 58.7733 109.404" stroke="#172C38" stroke-width="2" stroke-linejoin="bevel"/>
<path d="M56.5933 100.024L59.2433 105.084" stroke="#172C38" stroke-width="2" stroke-linejoin="bevel"/>
<path d="M69.9033 115.584L71.4833 117.584" stroke="#172C38" stroke-width="2" stroke-linejoin="bevel"/>
<path d="M37.2833 62.7042L36.7633 61.7042" stroke="#172C38" stroke-width="2" stroke-linejoin="bevel"/>
<path d="M41.5833 121.204C41.0222 122.124 40.744 123.188 40.7833 124.264" stroke="#172C38" stroke-width="2" stroke-linejoin="bevel"/>
<path d="M70.6833 147.464L71.1933 147.724" stroke="#172C38" stroke-width="2" stroke-linejoin="bevel"/>
<path d="M83.4433 161.534H84.9733" stroke="#172C38" stroke-width="2" stroke-linejoin="bevel"/>
<path d="M106.413 128.094L107.953 128.344" stroke="#172C38" stroke-width="2" stroke-linejoin="bevel"/>
<path d="M124.593 119.804C124.765 119.896 124.958 119.943 125.153 119.943C125.348 119.942 125.54 119.892 125.711 119.799C125.882 119.706 126.028 119.572 126.135 119.409C126.242 119.246 126.306 119.059 126.323 118.864" stroke="#172C38" stroke-width="2" stroke-linejoin="bevel"/>
<path d="M133.223 54.8042L135.223 52.8042" stroke="#172C38" stroke-width="2" stroke-linejoin="bevel"/>
<path d="M23.4233 23.4142C23.3779 22.5874 23.1233 21.7857 22.6833 21.0842C22.1987 21.4901 21.8498 22.0344 21.6833 22.6442" stroke="#172C38" stroke-width="2" stroke-linejoin="bevel"/>
<path d="M10.4133 38.9942C10.0998 38.799 9.73117 38.7113 9.36331 38.7442L8.89331 40.2542" stroke="#172C38" stroke-width="2" stroke-linejoin="bevel"/>
<path d="M10.1433 105.314L8.62332 105.854" stroke="#172C38" stroke-width="2" stroke-linejoin="bevel"/>
<path d="M23.9333 139.314L23.1633 140.314" stroke="#172C38" stroke-width="2" stroke-linejoin="bevel"/>
<path d="M22.9933 42.2142L26.4833 44.6342" stroke="#172C38" stroke-width="2" stroke-linejoin="bevel"/>
<path d="M22.1933 49.6442L25.5033 50.9342" stroke="#172C38" stroke-width="2" stroke-linejoin="bevel"/>
<path d="M21.1433 57.3642C22.4504 57.3524 23.7204 57.7981 24.7333 58.6242" stroke="#172C38" stroke-width="2" stroke-linejoin="bevel"/>
<path d="M31.1333 34.5942L32.5633 35.5142" stroke="#172C38" stroke-width="2" stroke-linejoin="bevel"/>
<path d="M41.5533 31.0942C42.5737 31.8593 43.4564 32.7927 44.1633 33.8542" stroke="#172C38" stroke-width="2" stroke-linejoin="bevel"/>
<path d="M23.4533 70.5842L26.2333 71.1742L25.9933 71.9242" stroke="#172C38" stroke-width="2" stroke-linejoin="bevel"/>
<path d="M24.4733 97.2442L22.3733 98.1042" stroke="#172C38" stroke-width="2" stroke-linejoin="bevel"/>
<path d="M141.143 81.3842L138.333 81.8942" stroke="#172C38" stroke-width="2" stroke-linejoin="bevel"/>
<path d="M133.483 35.1542C132.371 35.5655 131.456 36.384 130.923 37.4442" stroke="#172C38" stroke-width="2" stroke-linejoin="bevel"/>
<path d="M100.783 25.7142C100.924 26.6563 100.863 27.6176 100.603 28.5342" stroke="#172C38" stroke-width="2" stroke-linejoin="bevel"/>
<path d="M85.6733 24.9142C85.4184 25.4822 85.3586 26.1186 85.5033 26.7242" stroke="#172C38" stroke-width="2" stroke-linejoin="bevel"/>
<path d="M150.513 49.7342C150.455 49.5521 150.458 49.356 150.521 49.1756C150.584 48.9952 150.704 48.8403 150.863 48.7342" stroke="#172C38" stroke-width="2" stroke-linejoin="bevel"/>
<path d="M146.763 26.7342V26.4742" stroke="#172C38" stroke-width="2" stroke-linejoin="bevel"/>
<path d="M13.4933 81.6442L15.7933 79.8642" stroke="#172C38" stroke-width="2" stroke-linejoin="bevel"/>
<path d="M15.2633 53.2742L17.8233 50.9942" stroke="#172C38" stroke-width="2" stroke-linejoin="bevel"/>
<path d="M63.0233 10.8942C62.964 10.6583 62.9804 10.4097 63.0701 10.1836C63.1598 9.95745 63.3184 9.76527 63.5233 9.6342" stroke="#172C38" stroke-width="2" stroke-linejoin="bevel"/>
<path d="M102.083 175.324C102.064 176.038 102.275 176.739 102.683 177.324C102.384 177.675 101.998 177.94 101.563 178.094" stroke="#172C38" stroke-width="2" stroke-linejoin="bevel"/>
<path d="M66.8433 185.534H66.5933" stroke="#172C38" stroke-width="2" stroke-linejoin="bevel"/>
<path d="M58.1733 175.304C57.7545 175.072 57.395 174.747 57.1227 174.353C56.8504 173.959 56.6726 173.508 56.6033 173.034" stroke="#172C38" stroke-width="2" stroke-linejoin="bevel"/>
<path d="M68.1033 175.314C68.518 174.902 68.803 174.377 68.9233 173.804" stroke="#172C38" stroke-width="2" stroke-linejoin="bevel"/>
<path d="M27.7033 148.704C27.5821 148.868 27.501 149.057 27.4663 149.257C27.4317 149.458 27.4446 149.664 27.5039 149.858C27.5632 150.053 27.6674 150.23 27.808 150.377C27.9485 150.524 28.1216 150.636 28.3133 150.704" stroke="#172C38" stroke-width="2" stroke-linejoin="bevel"/>
<path d="M137.563 144.404C138.744 144.176 139.959 144.193 141.133 144.454" stroke="#172C38" stroke-width="2" stroke-linejoin="bevel"/>
<path d="M153.903 91.3242L154.673 89.0242" stroke="#172C38" stroke-width="2" stroke-linejoin="bevel"/>
</svg>
